<?xml version="1.0" encoding="UTF-8" standalone="no"?>
<svg
   xmlns:dc="http://purl.org/dc/elements/1.1/"
   xmlns:cc="http://creativecommons.org/ns#"
   xmlns:rdf="http://www.w3.org/1999/02/22-rdf-syntax-ns#"
   xmlns:svg="http://www.w3.org/2000/svg"
   xmlns="http://www.w3.org/2000/svg"
   xmlns:sodipodi="http://sodipodi.sourceforge.net/DTD/sodipodi-0.dtd"
   xmlns:inkscape="http://www.inkscape.org/namespaces/inkscape"
   viewBox="0 -47 512.00203 512"
   version="1.1"
   id="svg6297"
   sodipodi:docname="twitter.svg"
   inkscape:version="0.92.3 (2405546, 2018-03-11)">
  <metadata
     id="metadata6303">
    <rdf:RDF>
      <cc:Work
         rdf:about="">
        <dc:format>image/svg+xml</dc:format>
        <dc:type
           rdf:resource="http://purl.org/dc/dcmitype/StillImage" />
      </cc:Work>
    </rdf:RDF>
  </metadata>
  <defs
     id="defs6301" />
  <sodipodi:namedview
     pagecolor="#ffffff"
     bordercolor="#666666"
     borderopacity="1"
     objecttolerance="10"
     gridtolerance="10"
     guidetolerance="10"
     inkscape:pageopacity="0"
     inkscape:pageshadow="2"
     inkscape:window-width="1920"
     inkscape:window-height="1017"
     id="namedview6299"
     showgrid="false"
     inkscape:zoom="0.921875"
     inkscape:cx="139.82779"
     inkscape:cy="291.8674"
     inkscape:window-x="-8"
     inkscape:window-y="-8"
     inkscape:window-maximized="1"
     inkscape:current-layer="svg6297" />
  <path
     d="m191.011719 419.042969c-22.140625 0-44.929688-1.792969-67.855469-5.386719-40.378906-6.335938-81.253906-27.457031-92.820312-33.78125l-30.335938-16.585938 32.84375-10.800781c35.902344-11.804687 57.742188-19.128906 84.777344-30.597656-27.070313-13.109375-47.933594-36.691406-57.976563-67.175781l-7.640625-23.195313 6.265625.957031c-5.941406-5.988281-10.632812-12.066406-14.269531-17.59375-12.933594-19.644531-19.78125-43.648437-18.324219-64.21875l1.4375-20.246093 12.121094 4.695312c-5.113281-9.65625-8.808594-19.96875-10.980469-30.777343-5.292968-26.359376-.863281-54.363282 12.476563-78.851563l10.558593-19.382813 14.121094 16.960938c44.660156 53.648438 101.226563 85.472656 168.363282 94.789062-2.742188-18.902343-.6875-37.144531 6.113281-53.496093 7.917969-19.039063 22.003906-35.183594 40.722656-46.691407 20.789063-12.777343 46-18.96875 70.988281-17.433593 26.511719 1.628906 50.582032 11.5625 69.699219 28.746093 9.335937-2.425781 16.214844-5.015624 25.511719-8.515624 5.59375-2.105469 11.9375-4.496094 19.875-7.230469l29.25-10.078125-19.074219 54.476562c1.257813-.105468 2.554687-.195312 3.910156-.253906l31.234375-1.414062-18.460937 25.230468c-1.058594 1.445313-1.328125 1.855469-1.703125 2.421875-1.488282 2.242188-3.339844 5.03125-28.679688 38.867188-6.34375 8.472656-9.511718 19.507812-8.921875 31.078125 2.246094 43.96875-3.148437 83.75-16.042969 118.234375-12.195312 32.625-31.09375 60.617187-56.164062 83.199219-31.023438 27.9375-70.582031 47.066406-117.582031 56.847656-23.054688 4.796875-47.8125 7.203125-73.4375 7.203125zm0 0"
     id="path6295"
     style="fill:#999999" />
  <path
     style="fill:#999999;fill-opacity:1;stroke:none;stroke-width:2.17290783;stroke-miterlimit:4;stroke-dasharray:none;stroke-dashoffset:0;stroke-opacity:1"
     d="M 151.86541,463.17477 C 105.77864,459.14661 61.125806,443.98989 13.307038,416.14325 L 3.8334074,410.62641 49.103649,395.03846 c 52.034791,-17.9172 66.518161,-23.5602 67.391611,-26.25705 0.34208,-1.05622 -3.3561,-4.19285 -8.21817,-6.97032 C 87.029186,349.67324 70.962643,329.03647 60.551769,300.51 53.79404,281.99337 52.975935,277.96035 56.407787,280.08136 c 3.937748,2.43367 2.271666,-0.91334 -5.565518,-11.18061 C 33.140083,245.70962 24.401996,217.93118 27.04517,193.24959 27.87269,185.52232 29.024365,179.2 29.604446,179.2 c 0.580083,0 2.943054,1.01062 5.25105,2.24582 5.253265,2.81146 5.29121,3.27653 -1.345809,-16.49481 C 29.208106,152.13683 27.989548,144.2351 28.065933,129.6511 28.184301,107.05259 31.382828,94.312938 42.51563,72.098417 L 50.917444,55.33334 63.862377,70.08023 c 38.726773,44.1176 77.917543,70.76178 126.484013,85.99125 9.26258,2.90456 21.23428,5.95107 26.60377,6.77003 5.36949,0.81896 11.35646,1.93521 13.30436,2.48056 3.06205,0.85726 3.65887,-1.88193 4.40706,-20.22628 0.7416,-18.18297 1.83763,-23.29057 7.66271,-35.70918 12.38383,-26.401236 33.73683,-44.620881 64.33107,-54.891023 35.73311,-11.995215 81.28555,-4.594393 107.50253,17.465748 l 6.91103,5.81524 34.75911,-12.424591 c 19.11752,-6.833525 35.32115,-11.862572 36.00805,-11.17566 0.68693,0.686912 -2.80062,12.6275 -7.75007,26.53464 l -8.99901,25.285706 17.25989,-0.99916 17.25989,-0.99915 -4.68775,6.68556 c -2.57827,3.67707 -13.61929,18.88896 -24.53561,33.80422 -10.91631,14.91525 -21.17729,29.55932 -22.80216,32.54237 -2.00901,3.68828 -3.4223,18.26601 -4.41688,45.55932 -0.84569,23.20667 -2.94845,46.99867 -4.98528,56.40678 -12.49603,57.71884 -38.99394,101.65647 -79.89293,132.47477 -55.36298,41.71726 -129.10734,59.33494 -216.42076,51.70339 z"
     id="path6848"
     inkscape:connector-curvature="0"
     transform="translate(0,-47)" />
</svg>
