<?xml version="1.0" encoding="UTF-8" standalone="no"?>
<svg
   xmlns:dc="http://purl.org/dc/elements/1.1/"
   xmlns:cc="http://creativecommons.org/ns#"
   xmlns:rdf="http://www.w3.org/1999/02/22-rdf-syntax-ns#"
   xmlns:svg="http://www.w3.org/2000/svg"
   xmlns="http://www.w3.org/2000/svg"
   xmlns:sodipodi="http://sodipodi.sourceforge.net/DTD/sodipodi-0.dtd"
   xmlns:inkscape="http://www.inkscape.org/namespaces/inkscape"
   viewBox="0 0 512 512"
   version="1.1"
   id="svg5113"
   sodipodi:docname="instagram.svg"
   inkscape:version="0.92.3 (2405546, 2018-03-11)">
  <metadata
     id="metadata5119">
    <rdf:RDF>
      <cc:Work
         rdf:about="">
        <dc:format>image/svg+xml</dc:format>
        <dc:type
           rdf:resource="http://purl.org/dc/dcmitype/StillImage" />
      </cc:Work>
    </rdf:RDF>
  </metadata>
  <defs
     id="defs5117" />
  <sodipodi:namedview
     pagecolor="#ffffff"
     bordercolor="#666666"
     borderopacity="1"
     objecttolerance="10"
     gridtolerance="10"
     guidetolerance="10"
     inkscape:pageopacity="0"
     inkscape:pageshadow="2"
     inkscape:window-width="1920"
     inkscape:window-height="1017"
     id="namedview5115"
     showgrid="false"
     inkscape:zoom="0.4609375"
     inkscape:cx="224.50884"
     inkscape:cy="341.82839"
     inkscape:window-x="-8"
     inkscape:window-y="-8"
     inkscape:window-maximized="1"
     inkscape:current-layer="svg5113" />
  <path
     d="m437 0h-362c-41.351562 0-75 33.648438-75 75v362c0 41.351562 33.648438 75 75 75h362c41.351562 0 75-33.648438 75-75v-362c0-41.351562-33.648438-75-75-75zm-180 390c-74.441406 0-135-60.558594-135-135s60.558594-135 135-135 135 60.558594 135 135-60.558594 135-135 135zm150-240c-24.8125 0-45-20.1875-45-45s20.1875-45 45-45 45 20.1875 45 45-20.1875 45-45 45zm0 0"
     id="path5107"
     style="fill:#999999" />
  <path
     d="m407 90c-8.277344 0-15 6.722656-15 15s6.722656 15 15 15 15-6.722656 15-15-6.722656-15-15-15zm0 0"
     id="path5109"
     style="fill:#999999" />
  <path
     d="m257 150c-57.890625 0-105 47.109375-105 105s47.109375 105 105 105 105-47.109375 105-105-47.109375-105-105-105zm0 0"
     id="path5111"
     style="fill:#999999" />
  <path
     style="fill:#999999;fill-opacity:1;stroke:none;stroke-width:2.17290783;stroke-miterlimit:4;stroke-dasharray:none;stroke-dashoffset:0;stroke-opacity:1"
     d="M 52.749642,507.10298 C 29.588588,499.09968 12.967649,482.77788 4.9352218,460.14915 1.3570634,450.06887 1.0847458,435.56942 1.0847458,255.1322 V 60.962712 L 6.2997482,48.013 C 12.557706,32.473461 28.689807,15.43899 44.474576,7.7028185 L 55.322034,2.3864407 H 256 456.67797 l 12.68085,6.4191284 c 15.69994,7.9474159 29.9674,23.4750679 36.55847,39.7875009 l 4.99796,12.369642 V 255.1322 c 0,180.43722 -0.27231,194.93667 -3.85047,205.01695 -5.32567,15.00334 -17.21451,30.46552 -29.33756,38.15535 -20.89405,13.2534 -13.58024,12.83439 -222.66336,12.75687 C 77.136033,510.99542 63.226516,510.72328 52.749642,507.10298 Z M 292.33777,386.1468 c 15.38742,-3.99775 38.41781,-15.99599 51.09115,-26.61719 51.38495,-43.06449 64.1981,-116.3942 30.32344,-173.54119 -33.22474,-56.05055 -101.02712,-80.54947 -162.81937,-58.83124 -31.07993,10.92371 -59.77996,36.30603 -74.10912,65.54213 -12.78095,26.07725 -16.06561,41.37787 -14.79418,68.91425 1.60452,34.75055 13.82988,63.20651 37.64606,87.62563 34.68196,35.56001 84.50109,49.42009 132.66202,36.90761 z M 421.1,148.52751 c 30.7065,-10.28094 41.88476,-48.802903 21.04801,-72.534656 -9.63939,-10.97866 -20.91897,-16.114888 -35.38965,-16.114888 -26.37169,0 -45.1192,19.105998 -45.15838,46.021874 -0.0438,30.07145 30.86457,52.21517 59.50002,42.62767 z"
     id="path5664"
     inkscape:connector-curvature="0" />
  <path
     style="fill:#999999;fill-opacity:1;stroke:none;stroke-width:2.17290783;stroke-miterlimit:4;stroke-dasharray:none;stroke-dashoffset:0;stroke-opacity:1"
     d="m 236.47458,356.89985 c -24.34871,-4.72009 -53.37737,-24.91347 -67.24226,-46.77612 -11.65395,-18.37637 -15.78867,-35.1355 -14.81767,-60.05996 0.78662,-20.19179 1.55141,-23.48052 9.07418,-39.02085 25.28912,-52.24151 85.59332,-74.18943 137.31739,-49.97714 54.30352,25.41975 75.78451,93.02012 46.15197,145.23961 -21.48785,37.86664 -67.48424,58.93006 -110.48361,50.59446 z"
     id="path5666"
     inkscape:connector-curvature="0" />
  <path
     style="fill:#999999;fill-opacity:1;stroke:none;stroke-width:2.17290783;stroke-miterlimit:4;stroke-dasharray:none;stroke-dashoffset:0;stroke-opacity:1"
     d="m 397.01695,114.11525 c -2.38644,-2.38644 -4.33898,-6.3359 -4.33898,-8.77658 0,-5.05747 9.11471,-15.087823 13.7105,-15.087823 5.5572,0 14.49289,8.791583 14.49289,14.259153 0,6.82419 -7.20046,13.94424 -14.1017,13.94424 -2.98305,0 -7.37627,-1.95255 -9.76271,-4.33899 z"
     id="path5668"
     inkscape:connector-curvature="0" />
  <path
     style="fill:#999999;fill-opacity:1;stroke:none;stroke-width:0.27161348;stroke-miterlimit:4;stroke-dasharray:none;stroke-dashoffset:0;stroke-opacity:1"
     d="m 251.87343,359.71259 c -18.85483,-0.88552 -37.45971,-7.0483 -53.15255,-17.60652 -12.0707,-8.12123 -23.1239,-19.5344 -30.69888,-31.69865 -8.83202,-14.18286 -14.02218,-29.78456 -15.52954,-46.68201 -0.35669,-3.99852 -0.35473,-13.2981 0.004,-17.49153 3.11837,-36.4844 24.93788,-68.57951 57.82245,-85.05316 11.39436,-5.70805 23.53194,-9.22468 36.53788,-10.58614 4.94991,-0.51816 16.51842,-0.43872 21.55932,0.14805 28.33491,3.29821 53.34261,17.21502 70.96645,39.49288 7.99861,10.11085 14.70714,23.06 18.21091,35.15165 4.63707,16.0027 5.4953,33.15922 2.45368,49.05011 -3.25436,17.00229 -10.43614,32.50901 -21.46861,46.35446 -3.38187,4.24415 -11.47863,12.33115 -15.78955,15.7705 -13.55012,10.81062 -28.44481,17.82713 -45.13247,21.26074 -3.882,0.79876 -10.00029,1.59161 -13.57939,1.75973 -6.71291,0.31531 -7.97037,0.32869 -12.20339,0.12989 z m 14.46598,-1.49879 c 30.88263,-3.19734 60.00022,-20.46711 76.78113,-45.53924 9.20004,-13.74564 14.6229,-28.65548 16.71932,-45.96881 0.57358,-4.73697 0.65732,-16.39062 0.15197,-21.14983 -3.57793,-33.69536 -21.69793,-62.64895 -49.81332,-79.59569 -12.21759,-7.36424 -26.11811,-12.16975 -40.81356,-14.10954 -5.13083,-0.67727 -15.91621,-0.82764 -21.42373,-0.29869 -31.65884,3.04058 -59.60105,19.89904 -77.14856,46.54629 -3.53495,5.3681 -5.00943,7.98935 -8.12124,14.4375 -6.53873,13.54929 -7.518,17.80452 -8.31678,36.13877 -1.07845,24.75339 2.61861,41.17011 13.30341,59.07351 3.87209,6.48805 7.5106,11.15301 13.4357,17.22605 9.92948,10.17737 20.62333,17.90946 33.62713,24.31377 10.05356,4.95133 17.50744,7.29732 27.54566,8.66956 7.25706,0.99205 16.06128,1.0858 24.07287,0.25635 z"
     id="path5670"
     inkscape:connector-curvature="0" />
  <path
     style="fill:#999999;fill-opacity:1;stroke:none;stroke-width:0.09602987;stroke-miterlimit:4;stroke-dasharray:none;stroke-dashoffset:0;stroke-opacity:1"
     d="m 405.59402,119.89046 c -4.53233,-0.47307 -8.578,-2.90918 -11.06519,-6.66293 -1.01355,-1.52969 -1.78996,-3.4107 -2.20636,-5.34534 -0.30974,-1.43907 -0.31158,-4.1741 -0.004,-5.70257 0.61345,-3.047 1.92025,-5.479398 4.13873,-7.70357 2.15328,-2.158821 4.54221,-3.468307 7.53889,-4.132427 0.8053,-0.178469 1.25795,-0.211575 2.96391,-0.216772 1.76852,-0.0054 2.13377,0.02081 3.00254,0.215381 1.46712,0.328576 2.32338,0.632042 3.70898,1.314493 6.13693,3.022624 9.43742,9.997985 7.89284,16.680975 -1.35519,5.86352 -6.14191,10.3871 -12.06357,11.4004 -1.07222,0.18347 -2.91892,0.25549 -3.90692,0.15236 z m 3.91045,-1.75016 c 5.93923,-1.56688 11.05272,-7.41798 11.37475,-13.01555 0.12753,-2.21675 -0.73758,-4.43096 -2.81768,-7.211652 -0.99257,-1.326873 -3.35455,-3.672207 -4.72545,-4.692128 -3.45467,-2.570219 -6.15491,-3.448811 -8.3894,-2.7297 -4.12513,1.327562 -10.34967,8.04374 -11.9529,12.89699 -0.55896,1.69204 -0.40642,3.28107 0.52495,5.46838 1.03591,2.43285 2.62272,4.65143 4.31684,6.03556 1.87613,1.53282 4.64071,2.85706 7.11338,3.4073 1.05234,0.23418 3.37165,0.15312 4.55551,-0.1592 z"
     id="path5672"
     inkscape:connector-curvature="0" />
  <path
     style="fill:#999999;fill-opacity:1;stroke:none;stroke-width:0.09602987;stroke-miterlimit:4;stroke-dasharray:none;stroke-dashoffset:0;stroke-opacity:1"
     d="m 405.13845,150.70514 c -9.07235,-0.48705 -18.05443,-3.77864 -25.38756,-9.30355 -2.60113,-1.95974 -5.76701,-4.9517 -7.69521,-7.27247 -5.82013,-7.00505 -9.11944,-14.65487 -10.17255,-23.5862 -0.21271,-1.80395 -0.24372,-7.24928 -0.053,-9.30025 1.63523,-17.582358 11.07866,-31.209124 26.07164,-37.621076 4.05627,-1.73472 9.79588,-3.178997 13.54615,-3.408662 0.72112,-0.04416 0.6671,-0.02866 -0.47276,0.135678 -7.76451,1.119422 -14.7956,4.001756 -20.90906,8.571482 -3.30359,2.469389 -6.63418,5.797261 -9.13466,9.127202 -10.17374,13.548584 -11.82716,31.873126 -4.24238,47.017416 2.14899,4.2908 4.69005,7.85842 8.0541,11.30783 7.37126,7.55829 16.54026,12.07438 27.18333,13.38883 1.72709,0.2133 6.60601,0.29736 8.50469,0.14652 10.60859,-0.84276 20.33887,-5.23969 27.9153,-12.61439 6.12659,-5.96346 10.33894,-13.27548 12.37271,-21.47724 3.14729,-12.69231 0.58053,-26.228129 -6.99068,-36.865434 -6.92168,-9.724736 -17.3153,-16.279279 -29.09807,-18.350154 -0.73827,-0.129754 -1.20551,-0.239164 -1.03832,-0.243133 0.38639,-0.0092 2.79959,0.396782 4.2929,0.722165 6.79363,1.480284 13.1409,4.692261 18.74962,9.488066 1.35831,1.161436 4.35889,4.151442 5.52616,5.506689 5.94756,6.905337 9.3295,14.675229 10.35979,23.801287 0.12246,1.084734 0.1655,2.268154 0.16654,4.578864 10e-4,3.26 -0.10174,4.67488 -0.53146,7.28679 -2.48596,15.10985 -12.04339,27.98002 -25.63625,34.52216 -4.78109,2.3011 -9.76343,3.72122 -14.94394,4.25946 -1.40887,0.14638 -5.13773,0.25188 -6.43705,0.18212 z"
     id="path5674"
     inkscape:connector-curvature="0" />
  <path
     style="fill:#999999;fill-opacity:1;stroke:none;stroke-width:0.13580674;stroke-miterlimit:4;stroke-dasharray:none;stroke-dashoffset:0;stroke-opacity:1"
     d="M 235.34493,1.1929159 V 0.10703741 l 103.69492,0.0371591 103.69492,0.0371591 2.37288,0.29989715 c 3.54036,0.44744974 9.50933,1.51502574 9.75141,1.74408504 0.0311,0.029401 -49.3469,0.053456 -109.72881,0.053456 H 235.34493 Z"
     id="path5676"
     inkscape:connector-curvature="0" />
  <path
     style="fill:#999999;fill-opacity:1;stroke:none;stroke-width:0.38411948;stroke-miterlimit:4;stroke-dasharray:none;stroke-dashoffset:0;stroke-opacity:1"
     d="M 507.34535,51.660295 C 503.08874,40.807925 497.64856,32.238397 489.88073,24.149546 483.19741,17.190011 476.53677,12.281929 467.82108,7.8942578 462.0593,4.9936521 461.9363,4.2306243 467.64355,6.7929553 c 15.71314,7.0545847 28.86562,19.8081937 36.43766,35.3326107 2.19957,4.509621 5.10524,12.243672 4.86768,12.956351 -0.0661,0.198205 -0.78766,-1.341525 -1.60354,-3.421622 z"
     id="path5678"
     inkscape:connector-curvature="0" />
  <path
     style="fill:#999999;fill-opacity:1;stroke:none;stroke-width:0.06790337;stroke-miterlimit:4;stroke-dasharray:none;stroke-dashoffset:0;stroke-opacity:1"
     d="M 75.22178,1.1997042 V 0.01326355 h 79.15254 79.15255 V 1.1997042 2.3861449 H 154.37432 75.22178 Z"
     id="path5680"
     inkscape:connector-curvature="0" />
  <path
     style="fill:#999999;fill-opacity:1;stroke:none;stroke-width:0.06790337;stroke-miterlimit:4;stroke-dasharray:none;stroke-dashoffset:0;stroke-opacity:1"
     d="M 1.7800102,58.888252 C 1.8061381,58.739099 1.9920142,57.945879 2.1930682,57.12554 5.7819317,42.482289 13.876633,29.07844 25.20812,19.015389 32.609884,12.442171 40.835182,7.585775 50.220009,4.2478221 51.537734,3.7791397 53.474805,3.1662358 53.514112,3.205543 53.527772,3.219199 52.389083,3.7923195 50.9837,4.4791437 44.957835,7.424043 42.506295,8.6616979 41.072527,9.4827802 c -4.082282,2.3378178 -7.993009,5.1132328 -12,8.5163148 -2.446944,2.078154 -6.360068,5.864282 -8.486617,8.211191 -5.280065,5.827205 -9.421963,11.708736 -12.3895155,17.59322 -1.0981152,2.177499 -1.2493465,2.531141 -3.9864711,9.322034 -1.3225771,3.281356 -2.4210504,5.981356 -2.441052,6 -0.020002,0.01864 -0.014989,-0.08814 0.011139,-0.237288 z"
     id="path5682"
     inkscape:connector-curvature="0" />
  <path
     style="fill:#999999;fill-opacity:1;stroke:none;stroke-width:0.06790337;stroke-miterlimit:4;stroke-dasharray:none;stroke-dashoffset:0;stroke-opacity:1"
     d="m 56.468007,2.3534893 c 0.01554,-0.014458 0.699435,-0.1804357 1.519774,-0.3688385 3.998276,-0.9182619 7.667474,-1.47101002 11.762712,-1.77199916 0.856926,-0.0629818 4.320553,-0.20089441 5.135593,-0.204486 L 75.174222,0.00689593 V 1.1933366 2.3797773 H 65.80699 c -5.151977,0 -9.35452,-0.01183 -9.338983,-0.026288 z"
     id="path5684"
     inkscape:connector-curvature="0" />
  <path
     style="fill:#999999;fill-opacity:1;stroke:none;stroke-width:0.13580674;stroke-miterlimit:4;stroke-dasharray:none;stroke-dashoffset:0;stroke-opacity:1"
     d="M 0.09233032,160.74073 C 0.13012762,75.243612 0.14604529,69.942682 0.37092967,67.961066 1.0048039,62.375552 0.96934403,57.231678 0.9876158,157.41869 l 0.0171434,94 H 0.5285009 0.05224262 Z"
     id="path5686"
     inkscape:connector-curvature="0" />
  <path
     style="fill:#999999;fill-opacity:1;stroke:none;stroke-width:0.19205974;stroke-miterlimit:4;stroke-dasharray:none;stroke-dashoffset:0;stroke-opacity:1"
     d="m 238.4636,511.466 c 0,-0.35995 1.21591,-0.36637 69.65602,-0.36722 65.90367,0 93.30695,-0.15224 110.02102,-0.60791 26.82277,-0.73125 39.03676,-2.05091 46.95708,-5.07341 3.38549,-1.29195 7.59816,-3.66541 13.58288,-7.65275 11.1919,-7.45659 22.20024,-21.59843 27.68823,-35.56963 2.35946,-6.00662 3.06636,-10.99216 3.62012,-25.53178 0.60348,-15.84458 0.95464,-54.67831 0.9594,-106.08998 l 0.003,-33.12616 h 0.48256 0.48257 l -0.0599,72.82002 c -0.0655,79.60697 0.0198,73.44388 -1.10481,79.81917 -3.69002,20.91807 -16.36682,39.48394 -34.64812,50.74405 -9.81629,6.0462 -21.0001,9.7458 -32.65102,10.80093 -1.49508,0.1354 -34.85573,0.19993 -103.59713,0.20037 -99.68095,0 -101.39193,-0.006 -101.39193,-0.3657 z"
     id="path5688"
     inkscape:connector-curvature="0" />
  <path
     style="fill:#999999;fill-opacity:1;stroke:none;stroke-width:0.02400747;stroke-miterlimit:4;stroke-dasharray:none;stroke-dashoffset:0;stroke-opacity:1"
     d="m 87.027667,511.15857 v -0.8221 l 0.14981,0.007 c 0.0824,0.004 0.716096,0.0179 1.408222,0.0314 0.692125,0.0136 1.781549,0.0352 2.420941,0.048 7.170474,0.14427 17.04028,0.26479 29.39886,0.35898 6.02235,0.0459 19.17068,0.1201 21.30309,0.12022 l 1.28838,7e-5 v 0.53932 0.53932 H 115.01232 87.027667 Z"
     id="path5690"
     inkscape:connector-curvature="0" />
  <path
     style="fill:#999999;fill-opacity:1;stroke:none;stroke-width:0.03395169;stroke-miterlimit:4;stroke-dasharray:none;stroke-dashoffset:0;stroke-opacity:1"
     d="m 142.99545,511.44725 v -0.54516 l 3.44915,0.0214 c 5.34696,0.0331 26.53413,0.0856 34.60739,0.0858 3.99297,7e-5 7.28407,0.009 7.31356,0.0207 0.0453,0.0174 0.0536,0.0933 0.0536,0.49153 v 0.47095 h -22.71186 -22.71186 z"
     id="path5692"
     inkscape:connector-curvature="0" />
  <path
     style="fill:#999999;fill-opacity:1;stroke:none;stroke-width:0.04801494;stroke-miterlimit:4;stroke-dasharray:none;stroke-dashoffset:0;stroke-opacity:1"
     d="m 188.45241,511.58074 c 0,-0.20877 -0.0131,-0.41372 -0.0291,-0.45542 -0.0265,-0.0691 1.86586,-0.0758 21.24916,-0.0758 21.89268,2e-5 32.42417,0.0337 32.42417,0.10378 0,0.022 -0.33977,0.0406 -0.75504,0.0414 -1.01682,0.002 -2.45806,0.0782 -2.69876,0.14304 -0.23217,0.0625 -0.24421,0.18723 -0.0238,0.24619 0.19587,0.0524 1.90202,0.13674 2.7655,0.13674 h 0.71206 v 0.11985 0.11985 h -26.82211 -26.82212 z"
     id="path5694"
     inkscape:connector-curvature="0" />
  <path
     style="fill:#999999;fill-opacity:1;stroke:none;stroke-width:0.06790337;stroke-miterlimit:4;stroke-dasharray:none;stroke-dashoffset:0;stroke-opacity:1"
     d="M 71.46383,511.88831 C 50.526894,510.90574 30.968154,501.15578 17.43875,484.95701 15.025812,482.068 12.611283,478.68379 10.735874,475.56224 5.0304509,466.06576 1.5135584,455.50337 0.4196366,444.57918 0.29463322,443.33087 0.21625435,442.31174 0.10548801,440.49444 L 0.06313222,439.79952 H 1.1194132 c 0.7997518,0 1.0563152,0.0206 1.056422,0.0848 0.00145,0.8722 0.3709475,6.49499 0.5801387,8.82825 0.4771788,5.32231 1.0562904,8.34516 2.2356514,11.66967 1.6975627,4.78528 4.0628817,9.79736 6.6998997,14.19699 4.608499,7.68889 10.675979,14.54076 17.778032,20.07632 6.654588,5.18679 14.441733,9.38239 22.909527,12.34331 4.313753,1.50839 8.539827,2.17696 17.050848,2.69748 3.707654,0.22675 10.269044,0.48572 14.610169,0.57665 1.00678,0.0211 2.082204,0.0556 2.389831,0.0767 l 0.559322,0.0383 v 0.77358 0.77358 l -7.542373,-0.0131 c -4.148305,-0.007 -7.740678,-0.0224 -7.983051,-0.0337 z"
     id="path5696"
     inkscape:connector-curvature="0" />
  <path
     style="fill:#999999;fill-opacity:1;stroke:none;stroke-width:0.01697584;stroke-miterlimit:4;stroke-dasharray:none;stroke-dashoffset:0;stroke-opacity:1"
     d="M 0.01481097,313.42505 V 301.11997 H 0.54589351 1.0769761 l 0.011287,5.25 c 0.00621,2.8875 0.011289,8.42479 0.01129,12.30508 l 3e-6,7.05509 H 0.55718385 0.01481097 Z"
     id="path5698"
     inkscape:connector-curvature="0" />
  <path
     style="fill:#999999;fill-opacity:1;stroke:none;stroke-width:0.09602987;stroke-miterlimit:4;stroke-dasharray:none;stroke-dashoffset:0;stroke-opacity:1"
     d="M 0.06436904,276.28751 V 251.45488 H 0.54376347 1.0231579 v 24.83263 24.83263 H 0.54376347 0.06436904 Z"
     id="path5700"
     inkscape:connector-curvature="0" />
  <path
     style="fill:#999999;fill-opacity:1;stroke:none;stroke-width:0.09602987;stroke-miterlimit:4;stroke-dasharray:none;stroke-dashoffset:0;stroke-opacity:1"
     d="M 0.06436904,376.09743 V 325.76102 H 0.57641482 1.0884606 l 0.061387,29.17115 c 0.072959,34.67036 0.2112777,53.18015 0.5101304,68.26577 l 0.064105,3.23591 H 0.89422601 0.06436904 Z"
     id="path5702"
     inkscape:connector-curvature="0" />
  <path
     style="fill:#999999;fill-opacity:1;stroke:none;stroke-width:0.13580674;stroke-miterlimit:4;stroke-dasharray:none;stroke-dashoffset:0;stroke-opacity:1"
     d="M 1.0599653,439.70052 0.11081276,439.62277 0.07561224,433.0804 0.04041171,426.53803 H 0.84370447 1.6469972 l 0.072817,0.98305 c 0.04005,0.54068 0.1433278,3.48474 0.2295071,6.54237 0.086179,3.05763 0.1842522,5.60509 0.2179399,5.66102 0.033688,0.0559 0.011887,0.0909 -0.048447,0.0777 -0.060334,-0.0132 -0.5368159,-0.0589 -1.0588498,-0.1017 z"
     id="path5704"
     inkscape:connector-curvature="0" />
  <path
     style="fill:#999999;fill-opacity:1;stroke:none;stroke-width:0.04801494;stroke-miterlimit:4;stroke-dasharray:none;stroke-dashoffset:0;stroke-opacity:1"
     d="m 510.94474,91.403705 0.006,-28.75168 0.11218,0.671152 c 0.32945,1.971076 0.62897,4.73511 0.78704,7.262825 0.12717,2.033637 0.14268,4.929324 0.14336,26.762194 l 7.1e-4,22.807194 h -0.52734 -0.52733 z"
     id="path5706"
     inkscape:connector-curvature="0" />
  <path
     style="fill:#999999;fill-opacity:1;stroke:none;stroke-width:0.06790337;stroke-miterlimit:4;stroke-dasharray:none;stroke-dashoffset:0;stroke-opacity:1"
     d="m 510.94422,152.18217 v -31.9661 h 0.50847 0.50847 v 31.9661 31.96611 h -0.50847 -0.50847 z"
     id="path5708"
     inkscape:connector-curvature="0" />
  <path
     style="fill:#999999;fill-opacity:1;stroke:none;stroke-width:0.06790337;stroke-miterlimit:4;stroke-dasharray:none;stroke-dashoffset:0;stroke-opacity:1"
     d="m 510.95504,231.94543 v -47.72346 l 0.50863,-0.0223 0.50863,-0.0223 -1.6e-4,47.74576 -1.5e-4,47.74576 h -0.50848 -0.50847 z"
     id="path5710"
     inkscape:connector-curvature="0" />
  <path
     style="fill:#999999;fill-opacity:1;stroke:none;stroke-width:0.03395169;stroke-miterlimit:4;stroke-dasharray:none;stroke-dashoffset:0;stroke-opacity:1"
     d="m 511.92932,306.18161 0.0111,-8.76272 h -0.49408 -0.49408 l -0.009,6.80509 c -0.005,3.74279 -0.009,-3.39238 -0.009,-15.85593 1e-5,-12.46356 0.004,-19.51484 0.009,-15.6695 l 0.009,6.99153 h 0.50839 0.5084 v 17.62712 c 0,9.69491 -0.0114,17.62712 -0.0254,17.62712 -0.014,0 -0.0204,-3.94322 -0.0143,-8.76271 z"
     id="path5712"
     inkscape:connector-curvature="0" />
  <path
     style="fill:#999999;fill-opacity:1;stroke:none;stroke-width:0.00424396;stroke-miterlimit:4;stroke-dasharray:none;stroke-dashoffset:0;stroke-opacity:1"
     d="m 214.38596,159.14593 10e-4,-0.1026 0.21671,-0.0961 c 2.80867,-1.24554 5.68221,-2.36935 8.62016,-3.37128 0.16855,-0.0575 1.05088,-0.35302 1.05394,-0.35302 6.3e-4,0 0.001,0.0408 0.001,0.0908 v 0.0907 l -0.23834,0.0794 c -3.1531,1.04962 -6.36188,2.29589 -9.39481,3.64888 -0.12835,0.0573 -0.2396,0.10676 -0.24722,0.10999 l -0.0139,0.006 z"
     id="path5714"
     inkscape:connector-curvature="0" />
  <path
     style="fill:#999999;fill-opacity:1;stroke:none;stroke-width:0.03395169;stroke-miterlimit:4;stroke-dasharray:none;stroke-dashoffset:0;stroke-opacity:1"
     d="m 224.28701,155.30824 c 0,-0.0686 0.0806,-0.10071 0.92373,-0.36815 3.7183,-1.17947 7.1626,-2.07546 10.83785,-2.81933 7.54429,-1.52696 14.8959,-2.20207 22.6791,-2.08265 2.57153,0.0395 4.40872,0.12799 7,0.33734 1.04897,0.0847 1.10169,0.0923 1.10169,0.15678 0,0.0432 -0.0332,0.0486 -0.19491,0.0315 -0.49268,-0.0522 -2.12964,-0.14299 -3.70339,-0.20547 -2.40749,-0.0956 -4.79555,-0.12917 -7.71187,-0.10848 -5.36827,0.0381 -7.4847,0.1694 -11.61017,0.72027 -6.46442,0.86318 -12.50106,2.2283 -18.85593,4.26406 -0.45898,0.14703 -0.4661,0.14817 -0.4661,0.0742 z"
     id="path5716"
     inkscape:connector-curvature="0" />
  <path
     style="fill:#999999;fill-opacity:1;stroke:none;stroke-width:0.03395169;stroke-miterlimit:4;stroke-dasharray:none;stroke-dashoffset:0;stroke-opacity:1"
     d="m 187.67767,176.31743 c 6.4e-4,-0.0748 0.0468,-0.13522 0.21186,-0.27707 0.11607,-0.0998 0.51612,-0.4437 0.889,-0.7643 5.79425,-4.98192 12.39456,-9.48328 19.18644,-13.08502 0.949,-0.50325 3.1475,-1.60891 4.05085,-2.03723 0.80105,-0.37981 2.29938,-1.06766 2.32567,-1.06766 0.01,0 0.013,0.0385 0.007,0.0855 -0.009,0.0748 -0.0782,0.11619 -0.5531,0.33232 -2.80291,1.27569 -5.93278,2.87991 -8.66101,4.43923 -5.84103,3.33844 -11.37472,7.24133 -16.42068,11.58144 -0.44577,0.38342 -0.86145,0.74019 -0.92372,0.79282 l -0.11323,0.0957 z"
     id="path5718"
     inkscape:connector-curvature="0" />
</svg>
